<svg width="24" height="24" viewBox="0 0 24 24" fill="none" xmlns="http://www.w3.org/2000/svg">
<path d="M22.0003 5.71048V15.2905C22.0003 18.0505 19.7603 20.2905 17.0003 20.2905H7.00031C6.54031 20.2905 6.10031 20.2305 5.67031 20.1105C5.05031 19.9405 4.85031 19.1505 5.31031 18.6905L15.9403 8.06048C16.1603 7.84048 16.4903 7.79048 16.8003 7.85048C17.1203 7.91048 17.4703 7.82048 17.7203 7.58048L20.2903 5.00048C21.2303 4.06048 22.0003 4.37048 22.0003 5.71048Z" fill="#FFD950"/>
<path opacity="0.4" d="M14.64 7.35953L4.17 17.8295C3.69 18.3095 2.89 18.1895 2.57 17.5895C2.2 16.9095 2 16.1195 2 15.2895V5.70953C2 4.36953 2.77 4.05953 3.71 4.99953L6.29 7.58953C6.68 7.96953 7.32 7.96953 7.71 7.58953L11.29 3.99953C11.68 3.60953 12.32 3.60953 12.71 3.99953L14.65 5.93953C15.03 6.32953 15.03 6.96953 14.64 7.35953Z" fill="#FFD950"/>
</svg>
