<svg width="20" height="20" viewBox="0 0 20 20" fill="none" xmlns="http://www.w3.org/2000/svg">
<g clip-path="url(#clip0_17475_344)">
<path d="M4.38 0H15.62C18.0391 0 20 1.96094 20 4.38V15.62C20 18.0391 18.0391 20 15.62 20H4.38C1.96094 20 0 18.0391 0 15.62V4.38C0 1.96094 1.96094 0 4.38 0Z" fill="url(#paint0_linear_17475_344)"/>
<path d="M6.40928 14.5165L6.41115 14.5172L5.72732 15.7015C5.47771 16.1339 4.9249 16.282 4.49256 16.0324C4.06021 15.7828 3.91209 15.23 4.1617 14.7976L4.66545 13.9251L4.71381 13.8414C4.80014 13.7173 5.01318 13.5031 5.43935 13.5434C5.43935 13.5434 6.44225 13.6522 6.51482 14.1735C6.51482 14.1735 6.52467 14.345 6.40928 14.5165ZM16.1079 11.4915H13.9756C13.8304 11.4818 13.767 11.4299 13.742 11.3997L13.7404 11.397L11.4579 7.44341L11.4549 7.44536L11.318 7.24911C11.0936 6.90599 10.7374 7.78348 10.7374 7.78348C10.312 8.7613 10.7978 9.87294 10.9671 10.209L14.1376 15.7004C14.3871 16.1326 14.9399 16.2808 15.3723 16.0311C15.8046 15.7815 15.9528 15.2287 15.7031 14.7964L14.9104 13.4233C14.895 13.39 14.8683 13.2997 15.0308 13.2993H16.1079C16.6072 13.2993 17.0119 12.8946 17.0119 12.3954C17.0119 11.8961 16.6072 11.4915 16.1079 11.4915ZM11.9662 12.7202C11.9662 12.7202 12.0801 13.2992 11.6397 13.2992H3.75693C3.25771 13.2992 2.85303 12.8945 2.85303 12.3953C2.85303 11.8961 3.25771 11.4914 3.75693 11.4914H5.7835C6.11068 11.4725 6.18818 11.2836 6.18818 11.2836L6.19006 11.2845L8.83537 6.70263L8.83459 6.70247C8.88279 6.61395 8.84264 6.53028 8.83568 6.51708L7.96201 5.00388C7.7124 4.57161 7.86053 4.01872 8.29287 3.76919C8.72521 3.51966 9.27803 3.66763 9.52764 4.09997L9.93279 4.80177L10.3372 4.10122C10.5869 3.66895 11.1397 3.52075 11.572 3.77044C12.0044 4.02013 12.1525 4.57278 11.9029 5.00513L8.22178 11.3809C8.20568 11.4197 8.20076 11.4807 8.32053 11.4914H10.5208L10.5213 11.5129C10.5213 11.5129 11.793 11.5326 11.9662 12.7202Z" fill="white"/>
</g>
<defs>
<linearGradient id="paint0_linear_17475_344" x1="1000" y1="0" x2="1000" y2="2000" gradientUnits="userSpaceOnUse">
<stop stop-color="#17C9FB"/>
<stop offset="1" stop-color="#1A74E8"/>
</linearGradient>
<clipPath id="clip0_17475_344">
<rect width="20" height="20" fill="white"/>
</clipPath>
</defs>
</svg>
