<svg width="19" height="20" viewBox="0 0 19 20" fill="none" xmlns="http://www.w3.org/2000/svg">
<g clip-path="url(#clip0_17475_1581)">
<path d="M8.44877 9.53467L0.074707 18.3082C0.168747 18.6414 0.33774 18.9488 0.568767 19.2067C0.799794 19.4647 1.08674 19.6664 1.40767 19.7964C1.7286 19.9265 2.07501 19.9814 2.42043 19.9571C2.76585 19.9327 3.10113 19.8297 3.40064 19.6559L12.823 14.2896L8.44877 9.53467Z" fill="#EA4335"/>
<path d="M16.9164 8.04332L12.8418 5.70947L8.25537 9.73421L12.8605 14.277L16.904 11.9681C17.2622 11.7806 17.5622 11.4985 17.7716 11.1526C17.9809 10.8067 18.0916 10.41 18.0916 10.0057C18.0916 9.60135 17.9809 9.20471 17.7716 8.85878C17.5622 8.51285 17.2622 8.23082 16.904 8.04325L16.9164 8.04332Z" fill="#FBBC04"/>
<path d="M0.0749335 1.65967C0.0243465 1.8468 -0.000849799 2.03988 2.18632e-05 2.23373V17.7339C0.000521374 17.9277 0.0256944 18.1206 0.0749335 18.308L8.73606 9.75917L0.0749335 1.65967Z" fill="#4285F4"/>
<path d="M8.51117 9.98403L12.8418 5.70962L3.43188 0.318238C3.07784 0.110902 2.67517 0.00109722 2.26488 4.3343e-06C1.24672 -0.00197446 0.351597 0.673785 0.074707 1.65364L8.51117 9.98403Z" fill="#34A853"/>
</g>
<defs>
<clipPath id="clip0_17475_1581">
<rect width="18.0919" height="20" fill="white"/>
</clipPath>
</defs>
</svg>
