<svg width="937" height="1360" viewBox="0 0 937 1360" fill="none" xmlns="http://www.w3.org/2000/svg">
<path d="M60.6179 260.325C445.06 252.676 745.606 285.099 936.889 0C801.125 258.4 509.117 317.572 181.231 324.086C147.475 324.777 151.522 337.263 177.086 350.588C337.87 434.434 545.143 505.45 698.13 600.45C782.964 646.445 835.868 742.038 701.684 760.495C554.668 776.583 406.566 766.219 259.649 759.557C225.104 758.027 248.496 770.957 256.096 774.757C396.696 845.131 616.06 882.983 706.224 981.685C875.546 1167.24 544.896 1367.9 360.029 1359.71C358.72 1359.71 357.465 1359.19 356.539 1358.27C355.614 1357.34 355.094 1356.08 355.094 1354.78C355.093 1353.86 355.456 1352.97 356.102 1352.32C356.749 1351.66 357.627 1351.29 358.548 1351.27C502.208 1349.45 782.964 1206.33 701.832 1038.54C639.058 908.942 278.156 844.391 172.743 780.975C137.605 756.497 155.42 717.362 194.901 714.105C248.447 706.258 302.93 709.466 355.982 709.17C449.403 707.936 562.909 713.661 655.787 705.715C704.743 701.57 704.891 673.983 668.668 651.775C561.33 585.99 420.779 541.427 306.434 489.609C214.79 445.193 97.6308 415.583 21.5814 345.949C-6.89401 312.933 -18.738 261.904 60.6179 260.325Z" fill="#AA9D9D"/>
</svg>
