<svg width="309" height="274" viewBox="0 0 309 274" fill="none" xmlns="http://www.w3.org/2000/svg">
<g clip-path="url(#clip0_17272_1127)">
<path opacity="0.05" d="M404.987 214.535C422.023 234.796 345.805 219.616 316.72 237.375C316.72 237.375 315.96 237.953 315.382 237.344C314.805 236.735 315.486 236.027 315.486 236.027C331.22 219.878 356.456 216.608 378.048 214.184C278.215 179.989 210.696 243.818 115.193 313.443C95.4795 327.815 88.8878 313.125 89.7161 299.749C95.3766 268.565 118.541 239.53 132.708 211.617C151.053 177.671 177.161 140.626 191.194 104.565C195.928 92.3935 190.762 85.67 178.01 93.7601C153.803 109.089 127.091 131.599 104 148.672C90.9617 158.466 78.2252 169.383 63.6623 177.421C53.3949 183.967 41.7568 177.703 45.8034 165.178C59.8061 130.054 136.121 47.1381 127.381 3.74929C116.03 -52.4015 20.7075 -35.2108 -14.7884 -8.94031C-15.0161 -8.77226 -15.3009 -8.7006 -15.581 -8.74083C-15.8612 -8.78106 -16.1142 -8.92993 -16.2854 -9.15531C-16.5288 -9.4756 -16.6351 -9.87953 -16.5807 -10.2781C-16.5263 -10.6767 -16.3158 -11.0374 -15.9955 -11.2808C27.7216 -47.6667 145.956 -60.0545 139.029 16.8453C135.32 57.7677 88.6776 107.827 67.358 151.198C66.2048 153.541 62.8849 161.056 71.0543 154.256C105.769 125.303 140.085 95.2234 179.054 71.819C215.324 51.3806 220.156 84.6128 207.949 111.646C188.178 163.346 150.662 219.273 126.908 269.694C123.13 277.709 124.462 281.517 132.851 275.408C214.303 216.023 294.813 167.985 376.093 205.971C361.71 190.229 350.727 167.579 355.48 145.905C355.48 145.905 355.565 144.964 356.341 144.908C357.117 144.851 357.299 145.742 357.299 145.742C367.027 173.71 391.427 198.396 404.987 214.535ZM59.6679 169.959C59.7273 170.238 59.6723 170.165 59.6679 169.959V169.959ZM197.642 85.147C197.885 85.1909 197.848 85.1426 197.642 85.147V85.147Z" fill="#B1B1B1"/>
</g>
<defs>
<clipPath id="clip0_17272_1127">
<rect width="309" height="274" fill="white"/>
</clipPath>
</defs>
</svg>
