<svg width="580" height="311" viewBox="0 0 580 311" fill="none" xmlns="http://www.w3.org/2000/svg">
<path d="M0 12C0 5.37258 5.37258 0 12 0H568C574.627 0 580 5.37258 580 12V310.789H0V12Z" fill="white"/>
<path d="M52.7676 124.518H549.206" stroke="#E1E3E6" stroke-width="0.686636" stroke-dasharray="3.43 4.12"/>
<path d="M52.7676 159.539H549.206" stroke="#E1E3E6" stroke-width="0.686636" stroke-dasharray="3.43 4.12"/>
<path d="M52.7676 194.556H549.206" stroke="#E1E3E6" stroke-width="0.686636" stroke-dasharray="3.43 4.12"/>
<path d="M52.7676 229.575H549.206" stroke="#E1E3E6" stroke-width="0.686636" stroke-dasharray="3.43 4.12"/>
<path d="M52.7676 264.594H549.206" stroke="#E1E3E6" stroke-width="0.686636" stroke-dasharray="3.43 4.12"/>
<path d="M49.2511 276.089V275.348H50.9293V281.802H50.1081V276.089H49.2511ZM52.1282 280.365V279.749L55.2613 275.411H56.2343V279.659H57.1269V280.365H56.2343V281.802H55.4309V280.365H52.1282ZM55.4666 276.259L53.0655 279.659H55.4666V276.259Z" fill="#818386"/>
<path d="M119.979 276.089V275.348H121.657V281.802H120.836V276.089H119.979ZM127.168 276.053H124.034V278.088C124.171 277.898 124.374 277.743 124.641 277.624C124.909 277.499 125.198 277.437 125.507 277.437C126.001 277.437 126.403 277.541 126.712 277.749C127.022 277.952 127.242 278.216 127.373 278.544C127.51 278.865 127.578 279.207 127.578 279.57C127.578 279.999 127.498 280.382 127.337 280.722C127.177 281.061 126.93 281.329 126.596 281.525C126.269 281.721 125.861 281.82 125.373 281.82C124.749 281.82 124.243 281.659 123.856 281.338C123.469 281.016 123.234 280.588 123.151 280.052H123.945C124.023 280.391 124.186 280.656 124.436 280.847C124.686 281.037 125.001 281.132 125.382 281.132C125.852 281.132 126.207 280.992 126.445 280.713C126.683 280.427 126.802 280.052 126.802 279.588C126.802 279.124 126.683 278.767 126.445 278.517C126.207 278.261 125.855 278.133 125.391 278.133C125.076 278.133 124.799 278.21 124.561 278.365C124.329 278.514 124.159 278.719 124.052 278.981H123.285V275.339H127.168V276.053Z" fill="#818386"/>
<path d="M190.673 276.089V275.348H192.351V281.802H191.53V276.089H190.673ZM197.344 276.883C197.213 276.223 196.805 275.893 196.121 275.893C195.591 275.893 195.196 276.098 194.934 276.508C194.672 276.913 194.544 277.583 194.55 278.517C194.687 278.207 194.913 277.966 195.228 277.794C195.55 277.615 195.907 277.526 196.3 277.526C196.913 277.526 197.4 277.717 197.763 278.097C198.132 278.478 198.317 279.005 198.317 279.677C198.317 280.082 198.237 280.445 198.076 280.766C197.921 281.088 197.683 281.344 197.362 281.534C197.046 281.724 196.663 281.82 196.21 281.82C195.597 281.82 195.118 281.683 194.773 281.409C194.428 281.135 194.187 280.757 194.05 280.275C193.913 279.793 193.845 279.198 193.845 278.49C193.845 276.306 194.607 275.214 196.13 275.214C196.713 275.214 197.171 275.372 197.505 275.687C197.838 276.003 198.034 276.401 198.094 276.883H197.344ZM196.13 278.213C195.874 278.213 195.633 278.267 195.407 278.374C195.181 278.475 194.996 278.633 194.854 278.847C194.717 279.055 194.648 279.311 194.648 279.615C194.648 280.067 194.779 280.436 195.041 280.722C195.303 281.001 195.678 281.141 196.166 281.141C196.582 281.141 196.913 281.013 197.156 280.757C197.406 280.496 197.531 280.144 197.531 279.704C197.531 279.24 197.412 278.877 197.174 278.615C196.936 278.347 196.588 278.213 196.13 278.213Z" fill="#818386"/>
<path d="M261.292 276.089V275.348H262.97V281.802H262.148V276.089H261.292ZM268.337 275.982L265.856 281.802H265.034L267.552 276.062H264.106V275.366H268.337V275.982Z" fill="#818386"/>
<path d="M332.135 275.402V274.662H333.813V281.115H332.992V275.402H332.135ZM336.387 277.759C336.053 277.628 335.798 277.438 335.619 277.188C335.441 276.938 335.351 276.634 335.351 276.277C335.351 275.956 335.432 275.667 335.592 275.411C335.753 275.15 335.991 274.944 336.306 274.795C336.628 274.641 337.015 274.563 337.467 274.563C337.919 274.563 338.303 274.641 338.618 274.795C338.94 274.944 339.181 275.15 339.341 275.411C339.508 275.667 339.591 275.956 339.591 276.277C339.591 276.622 339.499 276.926 339.315 277.188C339.13 277.444 338.877 277.634 338.556 277.759C338.925 277.872 339.216 278.071 339.431 278.357C339.651 278.637 339.761 278.976 339.761 279.375C339.761 279.761 339.666 280.101 339.475 280.392C339.285 280.678 339.014 280.901 338.663 281.062C338.318 281.216 337.919 281.294 337.467 281.294C337.015 281.294 336.616 281.216 336.271 281.062C335.931 280.901 335.667 280.678 335.476 280.392C335.286 280.101 335.191 279.761 335.191 279.375C335.191 278.976 335.298 278.634 335.512 278.348C335.726 278.062 336.018 277.866 336.387 277.759ZM338.806 276.375C338.806 276.012 338.687 275.733 338.449 275.536C338.211 275.34 337.883 275.242 337.467 275.242C337.056 275.242 336.732 275.34 336.494 275.536C336.256 275.733 336.137 276.015 336.137 276.384C336.137 276.718 336.259 276.985 336.503 277.188C336.753 277.39 337.074 277.491 337.467 277.491C337.865 277.491 338.187 277.39 338.431 277.188C338.681 276.979 338.806 276.709 338.806 276.375ZM337.467 278.116C337.026 278.116 336.666 278.22 336.387 278.428C336.107 278.631 335.967 278.937 335.967 279.348C335.967 279.729 336.101 280.035 336.369 280.267C336.643 280.499 337.009 280.615 337.467 280.615C337.925 280.615 338.288 280.499 338.556 280.267C338.824 280.035 338.957 279.729 338.957 279.348C338.957 278.949 338.821 278.646 338.547 278.437C338.273 278.223 337.913 278.116 337.467 278.116Z" fill="#818386"/>
<path d="M402.178 276.089V275.348H403.856V281.802H403.035V276.089H402.178ZM406.296 280.07C406.355 280.409 406.492 280.671 406.706 280.856C406.927 281.04 407.221 281.132 407.59 281.132C408.084 281.132 408.447 280.939 408.679 280.552C408.917 280.165 409.03 279.514 409.018 278.597C408.893 278.865 408.685 279.076 408.393 279.231C408.102 279.38 407.777 279.454 407.42 279.454C407.022 279.454 406.665 279.374 406.349 279.213C406.04 279.047 405.796 278.806 405.617 278.49C405.439 278.175 405.35 277.794 405.35 277.348C405.35 276.711 405.534 276.199 405.903 275.812C406.272 275.419 406.796 275.223 407.474 275.223C408.307 275.223 408.89 275.494 409.224 276.035C409.563 276.577 409.732 277.383 409.732 278.454C409.732 279.204 409.664 279.823 409.527 280.311C409.396 280.799 409.17 281.171 408.849 281.427C408.533 281.683 408.099 281.811 407.545 281.811C406.938 281.811 406.465 281.647 406.126 281.32C405.787 280.992 405.594 280.576 405.546 280.07H406.296ZM407.554 278.767C407.953 278.767 408.28 278.645 408.536 278.401C408.792 278.151 408.92 277.815 408.92 277.392C408.92 276.946 408.795 276.586 408.545 276.312C408.295 276.038 407.944 275.901 407.492 275.901C407.075 275.901 406.742 276.032 406.492 276.294C406.248 276.556 406.126 276.901 406.126 277.33C406.126 277.764 406.248 278.112 406.492 278.374C406.736 278.636 407.09 278.767 407.554 278.767Z" fill="#818386"/>
<path d="M472.203 281.15C472.958 280.543 473.551 280.046 473.979 279.659C474.408 279.267 474.768 278.859 475.059 278.437C475.357 278.008 475.505 277.589 475.505 277.178C475.505 276.791 475.41 276.488 475.22 276.267C475.035 276.041 474.735 275.928 474.318 275.928C473.914 275.928 473.598 276.056 473.372 276.312C473.152 276.562 473.033 276.898 473.015 277.321H472.229C472.253 276.654 472.456 276.14 472.836 275.777C473.217 275.414 473.708 275.232 474.309 275.232C474.922 275.232 475.407 275.402 475.764 275.741C476.127 276.08 476.309 276.547 476.309 277.142C476.309 277.636 476.16 278.118 475.862 278.588C475.571 279.052 475.238 279.463 474.863 279.82C474.488 280.171 474.009 280.582 473.426 281.052H476.496V281.73H472.203V281.15ZM477.435 278.508C477.435 277.484 477.602 276.687 477.935 276.116C478.268 275.538 478.852 275.25 479.685 275.25C480.512 275.25 481.092 275.538 481.425 276.116C481.759 276.687 481.925 277.484 481.925 278.508C481.925 279.549 481.759 280.359 481.425 280.936C481.092 281.513 480.512 281.802 479.685 281.802C478.852 281.802 478.268 281.513 477.935 280.936C477.602 280.359 477.435 279.549 477.435 278.508ZM481.122 278.508C481.122 277.99 481.086 277.553 481.015 277.196C480.949 276.833 480.809 276.541 480.595 276.321C480.387 276.101 480.083 275.991 479.685 275.991C479.28 275.991 478.971 276.101 478.756 276.321C478.548 276.541 478.408 276.833 478.337 277.196C478.271 277.553 478.239 277.99 478.239 278.508C478.239 279.044 478.271 279.493 478.337 279.856C478.408 280.219 478.548 280.51 478.756 280.731C478.971 280.951 479.28 281.061 479.685 281.061C480.083 281.061 480.387 280.951 480.595 280.731C480.809 280.51 480.949 280.219 481.015 279.856C481.086 279.493 481.122 279.044 481.122 278.508Z" fill="#818386"/>
<path d="M545.546 281.15C546.302 280.543 546.894 280.046 547.322 279.659C547.751 279.267 548.111 278.859 548.402 278.437C548.7 278.008 548.849 277.589 548.849 277.178C548.849 276.791 548.753 276.488 548.563 276.267C548.378 276.041 548.078 275.928 547.661 275.928C547.257 275.928 546.941 276.056 546.715 276.312C546.495 276.562 546.376 276.898 546.358 277.321H545.573C545.596 276.654 545.799 276.14 546.18 275.777C546.56 275.414 547.051 275.232 547.652 275.232C548.265 275.232 548.75 275.402 549.107 275.741C549.47 276.08 549.652 276.547 549.652 277.142C549.652 277.636 549.503 278.118 549.206 278.588C548.914 279.052 548.581 279.463 548.206 279.82C547.831 280.171 547.352 280.582 546.769 281.052H549.839V281.73H545.546V281.15ZM550.564 276.089V275.348H552.242V281.802H551.421V276.089H550.564Z" fill="#818386"/>
<path d="M36.5504 264.093C36.5504 263.069 36.717 262.272 37.0503 261.701C37.3835 261.123 37.9667 260.835 38.7998 260.835C39.627 260.835 40.2072 261.123 40.5405 261.701C40.8737 262.272 41.0403 263.069 41.0403 264.093C41.0403 265.134 40.8737 265.944 40.5405 266.521C40.2072 267.098 39.627 267.387 38.7998 267.387C37.9667 267.387 37.3835 267.098 37.0503 266.521C36.717 265.944 36.5504 265.134 36.5504 264.093ZM40.237 264.093C40.237 263.575 40.2013 263.138 40.1298 262.781C40.0644 262.418 39.9245 262.126 39.7103 261.906C39.502 261.686 39.1985 261.576 38.7998 261.576C38.3952 261.576 38.0857 261.686 37.8715 261.906C37.6632 262.126 37.5234 262.418 37.452 262.781C37.3865 263.138 37.3538 263.575 37.3538 264.093C37.3538 264.629 37.3865 265.078 37.452 265.441C37.5234 265.804 37.6632 266.095 37.8715 266.316C38.0857 266.536 38.3952 266.646 38.7998 266.646C39.1985 266.646 39.502 266.536 39.7103 266.316C39.9245 266.095 40.0644 265.804 40.1298 265.441C40.2013 265.078 40.237 264.629 40.237 264.093Z" fill="#818386"/>
<path d="M34.677 227.341V226.6H36.3551V233.054H35.5339V227.341H34.677ZM41.2584 233.054L38.6966 230.215V233.054H37.8843V226.832H38.6966V229.715L41.2673 226.832H42.2939L39.4732 229.947L42.3206 233.054H41.2584Z" fill="#818386"/>
<path d="M31.7713 197.385C32.527 196.778 33.1191 196.281 33.5476 195.894C33.9761 195.501 34.3361 195.093 34.6277 194.671C34.9252 194.242 35.074 193.823 35.074 193.412C35.074 193.026 34.9788 192.722 34.7884 192.502C34.6039 192.276 34.3034 192.163 33.8868 192.163C33.4821 192.163 33.1668 192.291 32.9406 192.546C32.7204 192.796 32.6014 193.133 32.5836 193.555H31.7981C31.8219 192.889 32.0242 192.374 32.405 192.011C32.7859 191.648 33.2768 191.466 33.8779 191.466C34.4908 191.466 34.9758 191.636 35.3329 191.975C35.6959 192.314 35.8774 192.782 35.8774 193.377C35.8774 193.871 35.7286 194.353 35.431 194.823C35.1395 195.287 34.8062 195.697 34.4313 196.055C34.0564 196.406 33.5774 196.816 32.9942 197.286H36.0648V197.965H31.7713V197.385ZM40.5118 198.036L37.95 195.198V198.036H37.1377V191.815H37.95V194.698L40.5208 191.815H41.5473L38.7266 194.93L41.5741 198.036H40.5118Z" fill="#818386"/>
<path d="M35.5138 157.268H32.3806V159.303C32.5175 159.113 32.7198 158.958 32.9876 158.839C33.2554 158.714 33.544 158.652 33.8535 158.652C34.3474 158.652 34.7491 158.756 35.0585 158.964C35.368 159.166 35.5881 159.431 35.7191 159.759C35.8559 160.08 35.9244 160.422 35.9244 160.785C35.9244 161.213 35.844 161.597 35.6834 161.937C35.5227 162.276 35.2757 162.544 34.9425 162.74C34.6152 162.936 34.2075 163.034 33.7196 163.034C33.0947 163.034 32.5889 162.874 32.2021 162.552C31.8153 162.231 31.5802 161.803 31.4969 161.267H32.2914C32.3687 161.606 32.5324 161.871 32.7823 162.061C33.0323 162.252 33.3476 162.347 33.7285 162.347C34.1986 162.347 34.5527 162.207 34.7907 161.928C35.0288 161.642 35.1478 161.267 35.1478 160.803C35.1478 160.339 35.0288 159.982 34.7907 159.732C34.5527 159.476 34.2016 159.348 33.7374 159.348C33.422 159.348 33.1453 159.425 32.9073 159.58C32.6752 159.729 32.5056 159.934 32.3985 160.196H31.6308V156.554H35.5138V157.268ZM40.5118 163.017L37.95 160.178V163.017H37.1377V156.795H37.95V159.678L40.5208 156.795H41.5473L38.7266 159.91L41.5741 163.017H40.5118Z" fill="#818386"/>
<path d="M27.8927 122.285V121.544H29.5708V127.998H28.7496V122.285H27.8927ZM30.9661 124.704C30.9661 123.681 31.1327 122.883 31.466 122.312C31.7992 121.735 32.3824 121.446 33.2155 121.446C34.0427 121.446 34.6229 121.735 34.9562 122.312C35.2894 122.883 35.456 123.681 35.456 124.704C35.456 125.746 35.2894 126.555 34.9562 127.132C34.6229 127.709 34.0427 127.998 33.2155 127.998C32.3824 127.998 31.7992 127.709 31.466 127.132C31.1327 126.555 30.9661 125.746 30.9661 124.704ZM34.6527 124.704C34.6527 124.187 34.617 123.749 34.5456 123.392C34.4801 123.029 34.3403 122.737 34.126 122.517C33.9177 122.297 33.6143 122.187 33.2155 122.187C32.8109 122.187 32.5014 122.297 32.2872 122.517C32.0789 122.737 31.9391 123.029 31.8677 123.392C31.8022 123.749 31.7695 124.187 31.7695 124.704C31.7695 125.24 31.8022 125.689 31.8677 126.052C31.9391 126.415 32.0789 126.707 32.2872 126.927C32.5014 127.147 32.8109 127.257 33.2155 127.257C33.6143 127.257 33.9177 127.147 34.126 126.927C34.3403 126.707 34.4801 126.415 34.5456 126.052C34.617 125.689 34.6527 125.24 34.6527 124.704ZM40.0792 127.998L37.5174 125.159V127.998H36.7051V121.776H37.5174V124.66L40.0881 121.776H41.1147L38.294 124.892L41.1414 127.998H40.0792Z" fill="#818386"/>
<path opacity="0.08" d="M123.491 168.809C82.6363 168.809 94.9957 215.5 52.7676 215.5V264.938H549.206V124.521H548.862C508.351 124.521 508.008 186.661 477.109 186.661C446.21 186.661 440.717 150.956 406.385 150.956C372.054 150.956 373.77 230.606 335.662 230.606C303.047 230.606 310.256 189.408 264.938 189.408C212.754 189.408 230.606 133.103 194.215 133.103C160.913 133.103 176.362 168.809 123.491 168.809Z" fill="#36D462"/>
<path d="M52.7676 215.5C94.9957 215.5 82.6363 168.809 123.491 168.809C176.362 168.809 160.913 133.103 194.215 133.103C230.606 133.103 212.754 189.408 264.938 189.408C310.256 189.408 303.047 230.606 335.662 230.606C373.77 230.606 372.054 150.956 406.385 150.956C440.717 150.956 446.21 186.661 477.109 186.661C508.008 186.661 508.351 124.521 548.862 124.521" stroke="#36D462" stroke-width="2.05991"/>
<circle cx="123.49" cy="168.805" r="3.43318" fill="#36D462" stroke="white" stroke-width="2.74655"/>
<circle cx="52.7665" cy="214.812" r="3.43318" fill="#36D462" stroke="white" stroke-width="2.74655"/>
<circle cx="194.215" cy="133.102" r="3.43318" fill="#36D462" stroke="white" stroke-width="2.74655"/>
<circle cx="335.659" cy="230.607" r="3.43318" fill="#36D462" stroke="white" stroke-width="2.74655"/>
<circle cx="406.385" cy="150.953" r="3.43318" fill="#36D462" stroke="white" stroke-width="2.74655"/>
<circle cx="477.107" cy="186.658" r="3.43318" fill="#36D462" stroke="white" stroke-width="2.74655"/>
<circle cx="549.207" cy="124.174" r="3.43318" fill="#36D462" stroke="white" stroke-width="2.74655"/>
<rect opacity="0.1" x="25.9863" y="64.3379" width="27.4655" height="27.4655" rx="4.08656" fill="#44CB7F"/>
<path fill-rule="evenodd" clip-rule="evenodd" d="M36.4356 76.124C36.6476 76.3568 37.008 76.3736 37.2408 76.1617L38.9177 74.6348V82.9904C38.9177 83.3052 39.1729 83.5604 39.4876 83.5604C39.8024 83.5604 40.0576 83.3052 40.0576 82.9904V74.6348L41.7345 76.1617C41.9672 76.3736 42.3277 76.3568 42.5396 76.124C42.7515 75.8913 42.7347 75.5308 42.5019 75.3189L39.4876 72.5742L36.4733 75.3189C36.2406 75.5308 36.2237 75.8913 36.4356 76.124Z" fill="#44CB7F"/>
<rect x="64.248" y="64.3379" width="70.984" height="29" rx="4" fill="#101010" fill-opacity="0.03"/>
<rect opacity="0.1" x="149.627" y="65.1055" width="27.4655" height="27.4655" rx="4.08656" fill="#FF9054"/>
<path fill-rule="evenodd" clip-rule="evenodd" d="M166.644 80.7803C166.432 80.5475 166.072 80.5307 165.839 80.7426L164.162 82.2695L164.162 73.9139C164.162 73.5991 163.907 73.3439 163.592 73.3439C163.277 73.3439 163.022 73.5991 163.022 73.9139V82.2695L161.345 80.7426C161.112 80.5307 160.752 80.5475 160.54 80.7803C160.328 81.013 160.345 81.3735 160.578 81.5854L163.592 84.3301L166.606 81.5854C166.839 81.3735 166.856 81.013 166.644 80.7803Z" fill="#FF9054"/>
<rect x="187.888" y="64.3379" width="75" height="29" rx="4" fill="#101010" fill-opacity="0.03"/>
<g opacity="0.6">
<rect x="408" y="26.334" width="141" height="29" rx="8.17311" fill="#FAFAFA"/>
</g>
<rect x="25.9868" y="25.9863" width="62.3764" height="19" rx="4" fill="#FAFAFA"/>
</svg>
