<svg width="354" height="207" viewBox="0 0 354 207" fill="none" xmlns="http://www.w3.org/2000/svg">
<g clip-path="url(#clip0_16856_2853)">
<path d="M0 12C0 5.37258 5.37258 0 12 0H353.333V207H0V12Z" fill="white"/>
<g clip-path="url(#clip1_16856_2853)">
<mask id="mask0_16856_2853" style="mask-type:alpha" maskUnits="userSpaceOnUse" x="-44" y="-188" width="443" height="438">
<rect width="442.562" height="437.355" transform="matrix(1 0 0 -1 -43.9883 249.912)" fill="url(#paint0_radial_16856_2853)"/>
</mask>
<g mask="url(#mask0_16856_2853)">
<g opacity="0.5">
<rect width="442.562" height="442.562" rx="221.281" transform="matrix(1 0 0 -1 -43.9888 473.795)" fill="url(#paint1_radial_16856_2853)"/>
<rect x="0.650826" y="-0.650826" width="441.26" height="441.26" rx="220.63" transform="matrix(1 0 0 -1 -43.9888 472.493)" stroke="white" stroke-opacity="0.2" stroke-width="1.30165"/>
</g>
<g opacity="0.5">
<rect x="0.650826" y="-0.650826" width="441.26" height="441.26" rx="220.63" transform="matrix(1 0 0 -1 -43.9888 29.9317)" stroke="white" stroke-opacity="0.2" stroke-width="1.30165"/>
</g>
</g>
<g clip-path="url(#clip2_16856_2853)">
<g opacity="0.6">
<g clip-path="url(#clip3_16856_2853)">
<rect x="52.739" y="84.7741" width="61.8762" height="61.8762" rx="30.9381" stroke="black" stroke-opacity="0.05" stroke-width="1.05805"/>
</g>
<g clip-path="url(#clip4_16856_2853)">
<g opacity="0.2">
<path fill-rule="evenodd" clip-rule="evenodd" d="M85.818 106.068H78.6743V103.211H85.818C87.7126 103.211 89.5296 103.964 90.8693 105.303C92.209 106.643 92.9617 108.46 92.9617 110.355V111.783C92.9617 113.678 92.209 115.495 90.8693 116.835C89.5296 118.174 87.7126 118.927 85.818 118.927H78.6743V116.07H85.818C86.9548 116.07 88.045 115.618 88.8488 114.814C89.6526 114.01 90.1042 112.92 90.1042 111.783V110.355C90.1042 109.218 89.6526 108.128 88.8488 107.324C88.045 106.52 86.9548 106.068 85.818 106.068Z" fill="black"/>
<path fill-rule="evenodd" clip-rule="evenodd" d="M78.6758 103.211C79.0547 103.211 79.4181 103.361 79.6861 103.629C79.954 103.897 80.1045 104.261 80.1045 104.64V126.785C80.1045 127.164 79.954 127.527 79.6861 127.795C79.4181 128.063 79.0547 128.214 78.6758 128.214C78.2969 128.214 77.9335 128.063 77.6655 127.795C77.3976 127.527 77.2471 127.164 77.2471 126.785V104.64C77.2471 104.261 77.3976 103.897 77.6655 103.629C77.9335 103.361 78.2969 103.211 78.6758 103.211Z" fill="black"/>
<path fill-rule="evenodd" clip-rule="evenodd" d="M72.9604 108.837C72.9604 108.458 73.111 108.095 73.3789 107.827C73.6469 107.559 74.0103 107.408 74.3892 107.408H94.3915C94.7704 107.408 95.1338 107.559 95.4017 107.827C95.6697 108.095 95.8202 108.458 95.8202 108.837C95.8202 109.216 95.6697 109.579 95.4017 109.847C95.1338 110.115 94.7704 110.266 94.3915 110.266H74.3892C74.0103 110.266 73.6469 110.115 73.3789 109.847C73.111 109.579 72.9604 109.216 72.9604 108.837ZM72.9604 113.123C72.9604 112.744 73.111 112.381 73.3789 112.113C73.6469 111.845 74.0103 111.694 74.3892 111.694H94.3915C94.7704 111.694 95.1338 111.845 95.4017 112.113C95.6697 112.381 95.8202 112.744 95.8202 113.123C95.8202 113.502 95.6697 113.865 95.4017 114.133C95.1338 114.401 94.7704 114.552 94.3915 114.552H74.3892C74.0103 114.552 73.6469 114.401 73.3789 114.133C73.111 113.865 72.9604 113.502 72.9604 113.123Z" fill="black"/>
</g>
<path fill-rule="evenodd" clip-rule="evenodd" d="M84.3907 103.927H77.2471V102.498H84.3907C86.0959 102.498 87.7312 103.175 88.9369 104.381C90.1427 105.587 90.82 107.222 90.82 108.927V110.356C90.82 112.061 90.1427 113.697 88.9369 114.902C87.7312 116.108 86.0959 116.785 84.3907 116.785H77.2471V115.357H84.3907C85.717 115.357 86.9889 114.83 87.9267 113.892C88.8645 112.954 89.3913 111.682 89.3913 110.356V108.927C89.3913 107.601 88.8645 106.329 87.9267 105.391C86.9889 104.454 85.717 103.927 84.3907 103.927Z" fill="black"/>
<path fill-rule="evenodd" clip-rule="evenodd" d="M77.2471 102.498C77.4365 102.498 77.6182 102.573 77.7522 102.707C77.8862 102.841 77.9614 103.023 77.9614 103.212V125.358C77.9614 125.547 77.8862 125.729 77.7522 125.863C77.6182 125.997 77.4365 126.072 77.2471 126.072C77.0576 126.072 76.8759 125.997 76.7419 125.863C76.608 125.729 76.5327 125.547 76.5327 125.358V103.212C76.5327 103.023 76.608 102.841 76.7419 102.707C76.8759 102.573 77.0576 102.498 77.2471 102.498Z" fill="black"/>
<path fill-rule="evenodd" clip-rule="evenodd" d="M72.2451 107.406C72.2451 107.216 72.3204 107.035 72.4544 106.901C72.5883 106.767 72.77 106.691 72.9595 106.691H92.9618C93.1512 106.691 93.3329 106.767 93.4669 106.901C93.6009 107.035 93.6761 107.216 93.6761 107.406C93.6761 107.595 93.6009 107.777 93.4669 107.911C93.3329 108.045 93.1512 108.12 92.9618 108.12H72.9595C72.77 108.12 72.5883 108.045 72.4544 107.911C72.3204 107.777 72.2451 107.595 72.2451 107.406ZM72.2451 111.692C72.2451 111.503 72.3204 111.321 72.4544 111.187C72.5883 111.053 72.77 110.978 72.9595 110.978H92.9618C93.1512 110.978 93.3329 111.053 93.4669 111.187C93.6009 111.321 93.6761 111.503 93.6761 111.692C93.6761 111.881 93.6009 112.063 93.4669 112.197C93.3329 112.331 93.1512 112.406 92.9618 112.406H72.9595C72.77 112.406 72.5883 112.331 72.4544 112.197C72.3204 112.063 72.2451 111.881 72.2451 111.692Z" fill="black"/>
</g>
</g>
<g clip-path="url(#clip5_16856_2853)">
<rect x="143.458" y="124.46" width="61.8762" height="61.8762" rx="30.9381" stroke="black" stroke-opacity="0.05" stroke-width="1.05805"/>
</g>
<g opacity="0.6">
<g clip-path="url(#clip6_16856_2853)">
<path fill-rule="evenodd" clip-rule="evenodd" d="M174.395 141.691C174.799 141.691 175.187 141.852 175.472 142.137C175.758 142.423 175.918 142.81 175.918 143.214V143.858C179.228 144.451 182.01 146.939 182.01 150.322C182.01 150.726 181.85 151.113 181.564 151.399C181.279 151.684 180.891 151.845 180.487 151.845C180.084 151.845 179.696 151.684 179.411 151.399C179.125 151.113 178.964 150.726 178.964 150.322C178.964 148.945 177.819 147.485 175.918 146.965V154.012C179.228 154.605 182.01 157.092 182.01 160.475C182.01 163.858 179.228 166.346 175.918 166.939V167.583C175.918 167.987 175.758 168.374 175.472 168.66C175.187 168.945 174.799 169.106 174.395 169.106C173.991 169.106 173.604 168.945 173.318 168.66C173.033 168.374 172.872 167.987 172.872 167.583V166.939C169.562 166.346 166.78 163.858 166.78 160.475C166.78 160.071 166.941 159.684 167.226 159.398C167.512 159.113 167.899 158.952 168.303 158.952C168.707 158.952 169.095 159.113 169.38 159.398C169.666 159.684 169.826 160.071 169.826 160.475C169.826 161.852 170.972 163.312 172.872 163.83V156.786C169.562 156.193 166.78 153.705 166.78 150.322C166.78 146.939 169.562 144.451 172.872 143.858V143.214C172.872 142.81 173.033 142.423 173.318 142.137C173.604 141.852 173.991 141.691 174.395 141.691ZM172.872 146.965C170.972 147.485 169.826 148.945 169.826 150.322C169.826 151.699 170.972 153.159 172.872 153.677V146.965ZM178.964 160.475C178.964 159.098 177.819 157.638 175.918 157.121V163.83C177.819 163.312 178.964 161.852 178.964 160.475Z" fill="black"/>
</g>
</g>
<g clip-path="url(#clip7_16856_2853)">
<rect x="230.996" y="85.3894" width="61.8762" height="61.8762" rx="30.9381" stroke="black" stroke-opacity="0.05" stroke-width="1.05805"/>
</g>
<g opacity="0.6">
<path d="M266.166 125.496C264.489 125.498 262.844 125.038 261.41 124.167C259.977 123.296 258.811 122.048 258.04 120.559H266.166L267.577 117.737H257.109C257.038 117.272 256.996 116.806 256.996 116.327C256.996 115.847 257.038 115.381 257.109 114.916H266.166L267.577 112.094H258.04C258.812 110.606 259.979 109.359 261.412 108.488C262.845 107.617 264.489 107.157 266.166 107.157C268.437 107.157 270.525 107.989 272.133 109.372L274.63 106.875C272.307 104.784 269.291 103.628 266.166 103.63C260.636 103.63 255.952 107.171 254.203 112.094H249.237L247.826 114.916H253.554C253.44 115.853 253.44 116.8 253.554 117.737H249.237L247.826 120.559H254.203C255.952 125.482 260.636 129.023 266.166 129.023C269.425 129.023 272.387 127.796 274.63 125.778L272.119 123.281C270.525 124.664 268.451 125.496 266.166 125.496Z" fill="black"/>
</g>
</g>
</g>
</g>
<defs>
<radialGradient id="paint0_radial_16856_2853" cx="0" cy="0" r="1" gradientUnits="userSpaceOnUse" gradientTransform="translate(221.281 218.678) scale(221.281 218.678)">
<stop/>
<stop offset="1" stop-opacity="0"/>
</radialGradient>
<radialGradient id="paint1_radial_16856_2853" cx="0" cy="0" r="1" gradientUnits="userSpaceOnUse" gradientTransform="translate(221.281 442.562) scale(221.281)">
<stop stop-color="#9ECF59" stop-opacity="0.4"/>
<stop offset="1" stop-color="#ABABAB" stop-opacity="0"/>
</radialGradient>
<clipPath id="clip0_16856_2853">
<path d="M0 12C0 5.37258 5.37258 0 12 0H353.333V207H0V12Z" fill="white"/>
</clipPath>
<clipPath id="clip1_16856_2853">
<rect width="365.693" height="188.455" rx="94.2275" transform="matrix(1 0 0 -1 -2.17969 187)" fill="white"/>
</clipPath>
<clipPath id="clip2_16856_2853">
<rect width="311.848" height="103.202" fill="white" transform="matrix(1 0 0 -1 20.2559 185.878)"/>
</clipPath>
<clipPath id="clip3_16856_2853">
<rect x="52.2104" y="84.2451" width="62.9343" height="62.9343" rx="31.4671" fill="white"/>
</clipPath>
<clipPath id="clip4_16856_2853">
<rect width="62.9343" height="63.9832" fill="white" transform="translate(52.2104 82.6514)"/>
</clipPath>
<clipPath id="clip5_16856_2853">
<rect x="142.928" y="123.931" width="62.9343" height="62.9343" rx="31.4671" fill="white"/>
</clipPath>
<clipPath id="clip6_16856_2853">
<rect width="86.0102" height="86.0102" fill="white" transform="translate(131.39 112.393)"/>
</clipPath>
<clipPath id="clip7_16856_2853">
<rect x="230.467" y="84.8604" width="62.9343" height="62.9343" rx="31.4671" fill="white"/>
</clipPath>
</defs>
</svg>
