<svg width="354" height="214" viewBox="0 0 354 214" fill="none" xmlns="http://www.w3.org/2000/svg">
<g clip-path="url(#clip0_16856_2778)">
<path d="M0 12C0 5.37258 5.37258 0 12 0H341.333C347.961 0 353.333 5.37258 353.333 12V214H0V12Z" fill="white"/>
<g clip-path="url(#clip1_16856_2778)">
<rect opacity="0.1" x="0.916084" y="-0.194057" width="263.531" height="83.4296" rx="20.5264" transform="matrix(0.838294 0.545219 0.545219 -0.838294 -56.6342 231.024)" stroke="#12A00E" stroke-opacity="0.5" stroke-width="1.32429"/>
<g clip-path="url(#clip2_16856_2778)">
<mask id="mask0_16856_2778" style="mask-type:alpha" maskUnits="userSpaceOnUse" x="96" y="17" width="276" height="276">
<path d="M308.795 40.0309C372.252 81.3027 390.236 166.202 348.964 229.659C307.692 293.116 222.793 311.101 159.336 269.829C95.8794 228.557 77.895 143.658 119.167 80.2007C160.439 16.7438 245.338 -1.24086 308.795 40.0309Z" fill="#D9D9D9"/>
</mask>
<g mask="url(#mask0_16856_2778)">
<path d="M321.603 262.014L286.078 238.909C276.729 232.828 274.079 220.319 280.16 210.969L303.264 175.445C309.346 166.095 321.855 163.445 331.205 169.526L366.729 192.631C376.079 198.712 378.729 211.221 372.648 220.571L349.543 256.095C343.462 265.445 330.953 268.095 321.603 262.014Z" stroke="#12A00E" stroke-opacity="0.5" stroke-width="1.98643"/>
<path d="M370.7 186.526L335.176 163.421C325.826 157.34 323.176 144.831 329.257 135.481L352.362 99.9563C358.443 90.6064 370.952 87.9565 380.302 94.0376L415.826 117.142C425.176 123.223 427.826 135.733 421.745 145.083L398.64 180.607C392.559 189.957 380.05 192.607 370.7 186.526Z" stroke="#12A00E" stroke-opacity="0.5" stroke-width="1.98643"/>
</g>
</g>
<g clip-path="url(#clip3_16856_2778)">
<mask id="mask1_16856_2778" style="mask-type:alpha" maskUnits="userSpaceOnUse" x="-23" y="-59" width="275" height="275">
<path d="M39.9483 193.757C-23.5085 152.485 -41.493 67.586 -0.221124 4.12903C41.0507 -59.3279 125.95 -77.3125 189.407 -36.0407C252.864 5.23108 270.848 90.1305 229.576 153.587C188.304 217.044 103.405 235.029 39.9483 193.757Z" fill="#D9D9D9"/>
</mask>
<g mask="url(#mask1_16856_2778)">
<path d="M76.2401 -103.718L111.764 -80.6134C121.114 -74.5323 123.764 -62.0229 117.683 -52.673L94.5783 -17.1487C88.4972 -7.79875 75.9879 -5.14885 66.6379 -11.23L31.1137 -34.3346C21.7638 -40.4157 19.1139 -52.9251 25.195 -62.275L48.2997 -97.7993C54.3808 -107.149 66.8902 -109.799 76.2401 -103.718Z" stroke="#12A00E" stroke-opacity="0.5" stroke-width="1.98643"/>
<path d="M27.14 -28.2249L62.6642 -5.12019C72.0141 0.960913 74.664 13.4702 68.5829 22.8202L45.4782 58.3445C39.3971 67.6944 26.8878 70.3443 17.5378 64.2632L-17.9864 41.1585C-27.3363 35.0774 -29.9862 22.5681 -23.9051 13.2182L-0.800374 -22.3061C5.28074 -31.6561 17.7901 -34.306 27.14 -28.2249Z" stroke="#12A00E" stroke-opacity="0.5" stroke-width="1.98643"/>
<path d="M-21.9567 47.2624L13.5676 70.3671C22.9175 76.4482 25.5673 88.9575 19.4862 98.3075L-3.61848 133.832C-9.6996 143.182 -22.2089 145.832 -31.5588 139.751L-67.0831 116.646C-76.433 110.565 -79.0829 98.0554 -73.0018 88.7055L-49.8971 53.1812C-43.8159 43.8312 -31.3066 41.1813 -21.9567 47.2624Z" stroke="#12A00E" stroke-opacity="0.5" stroke-width="1.98643"/>
</g>
</g>
<rect opacity="0.1" x="0.916084" y="-0.194057" width="263.531" height="83.4296" rx="20.5264" transform="matrix(0.838294 0.545219 0.545219 -0.838294 139.756 -70.9333)" stroke="#12A00E" stroke-opacity="0.5" stroke-width="1.32429"/>
<g clip-path="url(#clip4_16856_2778)">
<g opacity="0.25">
<path d="M20.3194 125.308C19.8596 125.009 19.7293 124.394 20.0283 123.934C20.3274 123.474 20.9426 123.344 21.4024 123.643L20.3194 125.308ZM21.4024 123.643L34.1741 131.949L33.091 133.615L20.3194 125.308L21.4024 123.643ZM57.0569 131.357L111.483 91.8061L112.651 93.4131L58.2246 132.964L57.0569 131.357ZM136.617 91.1555L141.548 94.3631L140.465 96.0283L135.534 92.8207L136.617 91.1555ZM111.483 91.8061C118.917 86.4038 128.913 86.1451 136.617 91.1555L135.534 92.8207C128.52 88.2589 119.419 88.4945 112.651 93.4131L111.483 91.8061ZM34.1741 131.949C41.1879 136.511 50.2884 136.276 57.0569 131.357L58.2246 132.964C50.7905 138.366 40.7948 138.625 33.091 133.615L34.1741 131.949Z" fill="#12A00E" fill-opacity="0.5"/>
<path d="M121.043 -29.5577C120.583 -29.8568 119.968 -29.7262 119.669 -29.2666C119.37 -28.807 119.5 -28.1916 119.96 -27.8925L121.043 -29.5577ZM119.96 -27.8925L132.606 -19.6677L133.689 -21.3329L121.043 -29.5577L119.96 -27.8925ZM141.301 1.67907L126.11 69.4543L128.049 69.8888L143.24 2.11357L141.301 1.67907ZM135.661 92.9004L140.467 96.0263L141.55 94.3611L136.744 91.2352L135.661 92.9004ZM126.11 69.4543C124.083 78.4975 127.892 87.8476 135.661 92.9004L136.744 91.2352C129.671 86.6349 126.203 78.1221 128.049 69.8888L126.11 69.4543ZM132.606 -19.6677C139.679 -15.0674 143.147 -6.55469 141.301 1.67907L143.24 2.11357C145.266 -6.92961 141.458 -16.2801 133.689 -21.3329L132.606 -19.6677Z" fill="#12A00E" fill-opacity="0.5"/>
<path d="M69.9604 48.9863L118.806 80.7553" stroke="#12A00E" stroke-opacity="0.5" stroke-width="1.98643" stroke-linecap="round"/>
</g>
</g>
<g clip-path="url(#clip5_16856_2778)">
<g opacity="0.25">
<path d="M231.247 262.495C231.707 262.794 232.322 262.663 232.621 262.203C232.92 261.744 232.79 261.128 232.33 260.829L231.247 262.495ZM232.33 260.829L219.558 252.523L218.475 254.188L231.247 262.495L232.33 260.829ZM210.821 231.365L224.907 165.577L222.964 165.161L208.879 230.949L210.821 231.365ZM215.311 142.338L210.379 139.131L209.296 140.796L214.228 144.004L215.311 142.338ZM224.907 165.577C226.831 156.591 223.014 147.349 215.311 142.338L214.228 144.004C221.241 148.565 224.716 156.98 222.964 165.161L224.907 165.577ZM219.558 252.523C212.544 247.961 209.07 239.547 210.821 231.365L208.879 230.949C206.955 239.935 210.771 249.177 218.475 254.188L219.558 252.523Z" fill="#12A00E" fill-opacity="0.5"/>
<path d="M331.97 107.629C332.43 107.928 332.56 108.543 332.261 109.003C331.962 109.462 331.347 109.593 330.887 109.294L331.97 107.629ZM330.887 109.294L318.241 101.069L319.324 99.4039L331.97 107.629L330.887 109.294ZM295.202 101.776L239.408 143.143L238.225 141.548L294.019 100.181L295.202 101.776ZM214.103 143.92L209.297 140.794L210.38 139.129L215.186 142.255L214.103 143.92ZM239.408 143.143C231.963 148.663 221.872 148.973 214.103 143.92L215.186 142.255C222.259 146.855 231.447 146.573 238.225 141.548L239.408 143.143ZM318.241 101.069C311.168 96.4688 301.98 96.7506 295.202 101.776L294.019 100.181C301.464 94.661 311.555 94.3511 319.324 99.4039L318.241 101.069Z" fill="#12A00E" fill-opacity="0.5"/>
<path d="M280.888 186.172L232.042 154.403" stroke="#12A00E" stroke-opacity="0.5" stroke-width="1.98643" stroke-linecap="round"/>
</g>
</g>
</g>
<rect x="151.142" y="91.002" width="51.8309" height="51.8309" rx="13.8216" fill="white" fill-opacity="0.01"/>
<g clip-path="url(#clip6_16856_2778)">
<mask id="mask2_16856_2778" style="mask-type:luminance" maskUnits="userSpaceOnUse" x="151" y="91" width="52" height="52">
<path d="M189.154 91.002H164.966C157.333 91.002 151.145 97.1901 151.145 104.824V129.011C151.145 136.645 157.333 142.833 164.966 142.833H189.154C196.787 142.833 202.975 136.645 202.975 129.011V104.824C202.975 97.1901 196.787 91.002 189.154 91.002Z" fill="white"/>
</mask>
<g mask="url(#mask2_16856_2778)">
<path d="M189.151 94.457H164.963C159.238 94.457 154.597 99.0981 154.597 104.823V129.011C154.597 134.736 159.238 139.377 164.963 139.377H189.151C194.876 139.377 199.517 134.736 199.517 129.011V104.823C199.517 99.0981 194.876 94.457 189.151 94.457Z" fill="#FF8484" fill-opacity="0.01"/>
<path d="M189.151 94.457H164.963C159.238 94.457 154.597 99.0981 154.597 104.823V129.011C154.597 134.736 159.238 139.377 164.963 139.377H189.151C194.876 139.377 199.517 134.736 199.517 129.011V104.823C199.517 99.0981 194.876 94.457 189.151 94.457Z" fill="#00A55B"/>
<path fill-rule="evenodd" clip-rule="evenodd" d="M177.059 111.526C177.059 110.687 176.379 110.006 175.539 110.006H171.669C170.829 110.006 170.148 110.687 170.148 111.526V115.446C170.148 116.286 170.829 116.966 171.669 116.966H175.539C176.379 116.966 177.059 117.647 177.059 118.487V122.307C177.059 123.147 177.74 123.827 178.58 123.827H182.45C183.289 123.827 183.97 123.147 183.97 122.307V118.387C183.97 117.548 183.289 116.867 182.45 116.867H178.58C177.74 116.867 177.059 116.186 177.059 115.347V111.526Z" fill="white"/>
</g>
<path d="M189.15 91.6504H164.963C157.687 91.6504 151.789 97.5485 151.789 104.824V129.012C151.789 136.287 157.687 142.186 164.963 142.186H189.15C196.426 142.186 202.324 136.287 202.324 129.012V104.824C202.324 97.5485 196.426 91.6504 189.15 91.6504Z" stroke="#70FF94" stroke-opacity="0.4" stroke-width="1.29577"/>
</g>
</g>
<defs>
<clipPath id="clip0_16856_2778">
<path d="M0 12C0 5.37258 5.37258 0 12 0H341.333C347.961 0 353.333 5.37258 353.333 12V214H0V12Z" fill="white"/>
</clipPath>
<clipPath id="clip1_16856_2778">
<rect width="421.767" height="376.578" fill="white" transform="matrix(0.838294 0.545219 0.545219 -0.838294 -102.774 149.863)"/>
</clipPath>
<clipPath id="clip2_16856_2778">
<rect width="174.805" height="264.856" fill="white" transform="matrix(0.838294 0.545219 0.545219 -0.838294 218.678 303.683)"/>
</clipPath>
<clipPath id="clip3_16856_2778">
<rect width="174.805" height="264.856" fill="white" transform="matrix(-0.838294 -0.545219 -0.545219 0.838294 130.063 -69.8955)"/>
</clipPath>
<clipPath id="clip4_16856_2778">
<rect width="96.6722" height="182.75" fill="white" transform="matrix(0.838294 0.545219 0.545219 -0.838294 10.8706 117.977)"/>
</clipPath>
<clipPath id="clip5_16856_2778">
<rect width="96.6722" height="182.75" fill="white" transform="matrix(0.838294 0.545219 0.545219 -0.838294 160.74 215.451)"/>
</clipPath>
<clipPath id="clip6_16856_2778">
<rect width="51.8309" height="51.8309" fill="white" transform="translate(151.143 91.002)"/>
</clipPath>
</defs>
</svg>
