<svg width="83" height="83" viewBox="0 0 83 83" fill="none" xmlns="http://www.w3.org/2000/svg">
<rect width="82.1104" height="82.1104" rx="8.22011" fill="#36C5F0" fill-opacity="0.1"/>
<path d="M58.9789 39.7979C61.2815 39.7979 63.1482 37.9312 63.1482 35.6286C63.1482 33.3259 61.2814 31.4593 58.9787 31.4593C56.6759 31.4593 54.8089 33.3261 54.8089 35.6289V39.7979H58.9789ZM47.3035 39.7979C49.6063 39.7979 51.4731 37.931 51.4731 35.6282V23.9539C51.4731 21.651 49.6063 19.7842 47.3035 19.7842C45.0006 19.7842 43.1338 21.651 43.1338 23.9538V35.6282C43.1338 37.931 45.0006 39.7979 47.3035 39.7979Z" fill="#2EB67D"/>
<path d="M23.9532 43.1338C21.6506 43.1338 19.7839 45.0004 19.7839 47.3031C19.7839 49.6057 21.6508 51.4724 23.9534 51.4724C26.2563 51.4724 28.1233 49.6056 28.1233 47.3027V43.1338H23.9532ZM35.6287 43.1338C33.3258 43.1338 31.459 45.0006 31.459 47.3034V58.9778C31.459 61.2806 33.3258 63.1475 35.6287 63.1475C37.9315 63.1475 39.7983 61.2806 39.7983 58.9778V47.3034C39.7983 45.0006 37.9315 43.1338 35.6287 43.1338Z" fill="#E01E5A"/>
<path d="M43.1347 58.9789C43.1347 61.2815 45.0014 63.1482 47.3041 63.1482C49.6067 63.1482 51.4734 61.2814 51.4734 58.9787C51.4734 56.6759 49.6065 54.8089 47.3037 54.8089L43.1347 54.8089L43.1347 58.9789ZM43.1347 47.3035C43.1347 49.6063 45.0016 51.4731 47.3044 51.4731L58.9788 51.4731C61.2816 51.4731 63.1484 49.6063 63.1484 47.3035C63.1484 45.0006 61.2816 43.1338 58.9788 43.1338L47.3044 43.1338C45.0016 43.1338 43.1347 45.0006 43.1347 47.3035Z" fill="#ECB22E"/>
<path d="M39.7974 23.9528C39.7974 21.6501 37.9307 19.7834 35.6281 19.7834C33.3254 19.7834 31.4588 21.6503 31.4588 23.9529C31.4588 26.2558 33.3256 28.1228 35.6284 28.1228L39.7974 28.1228L39.7974 23.9528ZM39.7974 35.6282C39.7974 33.3253 37.9306 31.4585 35.6277 31.4585L23.9534 31.4585C21.6505 31.4585 19.7837 33.3253 19.7837 35.6282C19.7837 37.931 21.6505 39.7979 23.9534 39.7979L35.6277 39.7979C37.9306 39.7979 39.7974 37.931 39.7974 35.6282Z" fill="#36C5F0"/>
</svg>
